<svg xmlns="http://www.w3.org/2000/svg" width="1122.527" height="793.727" viewBox="65.31 54.206 46.841 34.155" xmlns:v="https://vecta.io/nano"><style><![CDATA[.B{stroke-linejoin:round}.C{stroke-width:.152}.D{stroke-linecap:round}.E{font-size:1.693px}.F{opacity:0}.G{stroke-opacity:0}.H{stroke:#840000}.I{stroke:#008484}.J{text-anchor:middle}.K{text-anchor:end}.L{stroke-width:.254}.M{fill-rule:evenodd}]]></style><g fill="none" class="B"><g class="H"><g class="L"><path d="M101.6 73.66v-2.54" class="D"/><path d="M99.06 73.66v-2.54l2.54 1.27z"/></g><path d="M99.06 72.39h2.54" class="C D"/><path d="M101.6 72.39h2.54m-5.08 0h-2.54" class="C D"/></g><g class="I"><text x="100.33" y="70.485" textLength="2.6827" lengthAdjust="spacingAndGlyphs" class="C E F G J">D1</text><g class="D"><g class="C"><path d="M99.393 70.429v-1.27m0 0h.302m0 0l.181.06m0 .001l.121.121m0 0l.061.121m0 0l.06.242m0 0v.181m0 0l-.06.242m0 0l-.061.121m0 0l-.121.121m0 0l-.181.06"/><path d="M99.695 70.429h-.302m1.935 0h-.726"/><path d="M100.965 70.429v-1.27m0 0l-.121.181m0 .001l-.121.121m0 0l-.121.061"/></g><path d="M86.106 81.026l3.302 3.302" class="H L"/></g><path d="M85.852 80.772l1.524.762-.762.762z" fill="#840000" class="C H M"/><path d="M86.106 71.374l3.302-3.302" class="D H L"/><g class="C H"><path d="M85.852 71.628l.762-1.524.762.762z" fill="#840000" class="M"/><path d="M104.14 72.39l1.016 1.016" class="D"/></g></g><g class="C H"><circle cx="105.512" cy="73.762" r=".508"/><g class="D"><path d="M106.172 72.39l3.048 3.048"/><path d="M107.696 73.914l1.016-1.016"/></g><circle cx="107.823" cy="76.124" r=".508"/><g class="D"><path d="M108.204 76.454l1.016 1.016m-5.08-5.08h0"/><path d="M109.22 77.47h0"/></g></g><g class="I C"><text x="108.458" y="72.009" textLength="4.0736" lengthAdjust="spacingAndGlyphs" class="E F G J">SW1</text><g class="D"><path d="M106.765 71.893l.181.06m0 .001h.302m.001 0l.121-.06m-.001-.001l.061-.061m0 .001l.06-.121m0 0v-.121m0 0l-.06-.121m0 0l-.061-.061m0 0l-.121-.06m.001 0l-.242-.06m0-.001l-.121-.061m0 .001l-.06-.061m-.001 0l-.06-.121m0 0v-.121m0 0l.06-.121m0 .001l.06-.061m.001 0l.121-.061m0 .001h.302m0 0l.181.061m.424-.061l.302 1.27m0 0l.242-.907m0-.001l.242.907m0 .001l.302-1.27m1.149 1.27h-.726"/><path d="M109.788 71.954v-1.27m0 0l-.121.181m.001 0l-.121.121m0 0l-.121.061"/><g class="H"><path d="M82.55 58.42v27.94m-12.7-27.94h12.7m-12.7 2.54h-1.27"/><path d="M69.85 60.96v-2.54m0 6.35h-1.27"/><path d="M69.85 64.77v-3.81m0 7.62h-1.27"/><path d="M69.85 68.58v-3.81m0 7.62h-1.27"/><path d="M69.85 72.39v-3.81m0 7.62h-1.27m1.27 3.81h-1.27m1.27 3.81h-1.27m1.27 2.54V72.39m12.7 13.97h-12.7"/></g></g></g><path d="M69.85 60.96h-2.54" class="C D H"/><g class="I C"><text x="70.358" y="61.595" textLength="2.6827" lengthAdjust="spacingAndGlyphs" class="E F G">D0</text><g class="D"><path d="M70.761 61.54v-1.27m0 0h.302m0 0l.181.06m0 0l.121.121m0 0l.06.121m.001 0l.06.242m0 0v.181m0 0l-.06.242m0 0l-.06.121m-.001 0l-.121.121m0 0l-.181.06"/><path d="M71.063 61.54h-.302m1.511-1.27h.121m0 0l.121.06m0 0l.06.061m.001 0l.061.121m-.001-.001l.061.242m0 0v.302m0 .001l-.061.242m0 0l-.061.121m.001 0l-.06.061m-.001-.001l-.121.06m0 .001h-.121m0 0l-.121-.06m.001-.001l-.061-.061m0 .001l-.06-.121m0 0l-.06-.242m-.001 0v-.302"/><path d="M71.97 60.753l.06-.242m.001 0l.06-.121m0 .001l.061-.061m0 0l.121-.06"/></g></g><g class="H C"><text x="68.58" y="60.706" textLength="1.4127" lengthAdjust="spacingAndGlyphs" class="E F G J">1</text><g class="D"><path d="M68.943 60.543h-.726"/><path d="M68.58 60.543v-1.27m0 0l-.121.181m0 0l-.121.121m0 0l-.121.06m1.633 5.135h-2.54"/></g></g><g class="I C"><text x="70.358" y="65.405" textLength="2.6827" lengthAdjust="spacingAndGlyphs" class="E F G">D1</text><g class="D"><path d="M70.761 65.35v-1.27m0-.001h.302m0 0l.181.061m0 0l.121.121m0 0l.06.121m.001 0l.06.242m0 0v.181m0 0l-.06.242m0 0l-.06.121m-.001 0l-.121.121m0 0l-.181.06"/><path d="M71.063 65.35h-.302m1.935 0h-.726"/><path d="M72.333 65.35v-1.27m0-.001l-.121.181m0 .001l-.121.121m0 0l-.121.061"/></g></g><g class="H C"><text x="68.58" y="64.516" textLength="1.4127" lengthAdjust="spacingAndGlyphs" class="E F G J">2</text><path d="M68.217 63.204l.06-.06m.001-.001l.121-.06m0 0h.302m0 0l.121.06m0 0l.061.06m-.001.001l.06.121m.001-.001v.121m0 0l-.06.181m-.001.001l-.726.726m.001 0h.786m.907 4.227h-2.54" class="D"/></g><g class="I C"><text x="70.358" y="69.215" textLength="2.6827" lengthAdjust="spacingAndGlyphs" class="E F G">D2</text><g class="D"><path d="M70.761 69.16v-1.27m0 0h.302m0 0l.181.061m0-.001l.121.121m0 0l.06.121m.001 0l.06.242m0 0v.181m0 0l-.06.242m0 0l-.06.121m-.001 0l-.121.121m0 0l-.181.06"/><path d="M71.063 69.16h-.302m1.209-1.149l.06-.06m.001-.001l.121-.061m0 .001h.302m0 0l.121.061m0-.001l.061.06m-.001.001l.061.121m0-.001v.121m0 0l-.061.181m0 .001l-.726.726m.001 0h.786"/></g></g><g class="H C"><text x="68.58" y="68.326" textLength="1.4127" lengthAdjust="spacingAndGlyphs" class="E F G J">3</text><g class="D"><path d="M68.157 66.893h.786"/><path d="M68.943 66.893l-.423.484m0-.001h.181m0 0l.121.061m0 0l.061.06m-.001 0l.06.121m.001 0v.302m0 .001l-.06.121m-.001 0l-.061.06m.001 0l-.121.06m0 .001h-.363m0 0l-.121-.06m0-.001l-.061-.06m1.694 4.348h-2.54"/></g></g><g class="I C"><text x="70.358" y="73.025" textLength="2.6827" lengthAdjust="spacingAndGlyphs" class="E F G">D3</text><g class="D"><path d="M70.761 72.97V71.7m0 0h.302m0 0l.181.061m0-.001l.121.121m0 0l.06.121m.001 0l.06.242m0 0v.181m0 0l-.06.242m0 0l-.06.121m-.001 0l-.121.121m0 0l-.181.06"/><path d="M71.063 72.97h-.302m1.149-1.27h.786"/><path d="M72.696 71.7l-.423.484m-.001-.001h.181m.001 0l.121.06m0 .001l.061.061m-.001-.001l.061.121m0 0v.302m0 .001l-.061.121m0 0l-.061.06m.001 0l-.121.06m0 .001h-.363m0 0l-.121-.06m0-.001l-.061-.06"/></g></g><g class="H C"><text x="68.58" y="72.136" textLength="1.4127" lengthAdjust="spacingAndGlyphs" class="E F G J">4</text><g class="D"><path d="M68.822 71.126v.847m-.302-1.331l-.302.907"/><path d="M68.217 71.549h.786m.847 4.651h-2.54"/></g></g><g class="I C"><text x="70.358" y="76.835" textLength="2.6827" lengthAdjust="spacingAndGlyphs" class="E F G">D4</text><g class="D"><path d="M70.761 76.78v-1.27m0 0h.302m0 0l.181.06m0 0l.121.121m0 0l.06.121m.001 0l.06.242m0 0v.181m0 0l-.06.242m0 0l-.06.121m-.001 0l-.121.121m0 0l-.181.06"/><path d="M71.063 76.78h-.302m1.814-.847v.847m-.303-1.331l-.302.907"/><path d="M71.97 76.356h.786"/></g></g><g class="H C"><text x="68.58" y="75.946" textLength="1.4127" lengthAdjust="spacingAndGlyphs" class="E F G J">5</text><path d="M68.882 74.513h-.605m.001 0l-.06.605m-.001-.001l.06-.061m.001.001l.121-.06m0-.001h.302m0 0l.121.06m0 .001l.061.061m-.001-.001l.06.121m.001 0v.302m0 .001l-.06.121m-.001 0l-.061.06m.001 0l-.121.06m0 .001h-.302m0 0l-.121-.06m0-.001l-.06-.06m1.632 4.348h-2.54" class="D"/></g><g class="I C"><text x="70.358" y="80.645" textLength="2.6827" lengthAdjust="spacingAndGlyphs" class="E F G">D5</text><g class="D"><path d="M70.761 80.59v-1.27m0 0h.302m0 0l.181.06m0 0l.121.121m0 0l.06.121m.001 0l.06.242m0 0v.181m0 0l-.06.242m0 0l-.06.121m-.001 0l-.121.121m0 0l-.181.06"/><path d="M71.063 80.59h-.302m1.874-1.27h-.605m.001 0l-.06.605m-.001-.001l.06-.061m.001.001l.121-.061m0 0h.302m0 0l.121.061m0 0l.061.061m-.001-.001l.061.121m0 0v.302m0 .001l-.061.121m0 0l-.061.061m.001-.001l-.121.06m0 .001h-.302m0 0l-.121-.06m0-.001l-.06-.061"/></g></g><g class="H C"><text x="68.58" y="79.756" textLength="1.4127" lengthAdjust="spacingAndGlyphs" class="E F G J">6</text><g class="D"><path d="M68.822 78.323h-.242m0 0l-.121.06m0 0l-.061.061m.001 0l-.121.181m0 0l-.06.242m-.001 0v.484m0 0l.06.121m.001 0l.06.061m0-.001l.121.06m0 .001h.242m0 0l.121-.06m0-.001l.061-.061m-.001.001l.06-.121m.001 0v-.302m0-.001l-.06-.121"/><path d="M68.882 78.927l-.061-.061m.001.001l-.121-.061m0 0h-.242m0 0l-.121.061m0 0l-.06.061m0-.001l-.06.121m1.632 4.772h-2.54"/></g></g><g class="I C"><text x="70.358" y="84.455" textLength="2.6827" lengthAdjust="spacingAndGlyphs" class="E F G">D6</text><g class="D"><path d="M70.761 84.4v-1.27m0 0h.302m0 0l.181.061m0-.001l.121.121m0 0l.06.121m.001 0l.06.242m0 0v.181m0 0l-.06.242m0 0l-.06.121m-.001 0l-.121.121m0 0l-.181.06"/><path d="M71.063 84.4h-.302m1.814-1.27h-.242m0 0l-.121.061m0-.001l-.061.061m.001 0l-.121.181m0 0l-.06.242m-.001 0v.484m0 0l.06.121m.001 0l.06.061m0-.001l.121.06m0 .001h.242m0 0l.121-.06m0-.001l.061-.061m-.001.001l.061-.121"/><path d="M72.696 84.158v-.302m0-.001l-.061-.121m0 0l-.061-.061m.001.001l-.121-.061m0 0h-.242m0 0l-.121.061m0 0l-.06.061m0-.001l-.06.121"/></g></g><g class="H C"><text x="68.58" y="83.566" textLength="1.4127" lengthAdjust="spacingAndGlyphs" class="E F G J">7</text><g class="D"><path d="M68.157 82.133h.847"/><path d="M69.003 82.133l-.544 1.27M82.55 60.96h2.54"/></g></g><g class="I C"><text x="82.042" y="61.595" textLength="5.1018" lengthAdjust="spacingAndGlyphs" class="E F G K">VBUS</text><g class="D"><path d="M77.164 60.27l.423 1.27m0 0l.423-1.27m.848.604l.181.061m0 0l.061.06m-.001 0l.06.121m.001 0v.181m0 .001l-.06.121m-.001 0l-.061.061m.001-.001l-.121.06m0 .001h-.484m0 0v-1.27"/><path d="M78.434 60.27h.423m.001 0l.121.06m-.001 0l.061.061m0 0l.061.121m-.001-.001v.121m0 0l-.061.121m.001 0l-.061.06m0 .001l-.121.06m.001 0h-.423m1.269-.604v1.028m0 0l.061.121m0 0l.061.061m-.001-.001l.121.06m0 .001h.242m0 0l.121-.06m0-.001l.061-.061m-.001.001l.06-.121m.001 0V60.27m.544 1.209l.181.06m.001.001h.302m0 0l.121-.06m0-.001l.06-.061m0 .001l.061-.121"/><path d="M81.7 61.298v-.121m0 0l-.061-.121m0 0l-.06-.061m0 0l-.121-.06m0 0l-.242-.061m0 0l-.121-.06m0 0l-.061-.06m.001-.001l-.06-.121m-.001 0v-.121m0 0l.06-.121m.001.001l.061-.061m-.001 0l.121-.06"/><path d="M81.216 60.27h.302m0 0l.181.06"/></g></g><g class="H C"><text x="83.82" y="60.706" textLength="2.6222" lengthAdjust="spacingAndGlyphs" class="E F G J">14</text><g class="D"><path d="M83.578 60.543h-.726"/><path d="M83.215 60.543v-1.27m0 0l-.121.181m0 0l-.121.121m0 0l-.121.06m1.815.061v.847m-.303-1.331l-.302.907"/><path d="M84.062 60.119h.786M82.55 64.77h2.54"/></g></g><g class="I C"><text x="82.042" y="65.405" textLength="4.0737" lengthAdjust="spacingAndGlyphs" class="E F G K">GND</text><g class="D"><path d="M79.039 64.14l-.121-.061m0 0h-.181m0 0l-.181.061m-.001 0l-.121.121m0 0l-.061.121m.001 0l-.06.242m-.001 0v.181m0 0l.06.242m.001 0l.061.121m-.001 0l.121.121m0 0l.181.06m.001.001h.121m-.001 0l.181-.06m.001-.001l.06-.061"/><path d="M79.099 65.229v-.423m0-.001h-.242m.787.545v-1.27m0-.001l.726 1.27"/><path d="M80.369 65.35v-1.27m.605 1.27v-1.27m0-.001h.302m.001 0l.181.061m0 0l.121.121m0 0l.06.121m0 0l.06.242m.001 0v.181m0 0l-.06.242m-.001 0l-.06.121m0 0l-.121.121m0 0l-.181.06"/><path d="M81.277 65.35h-.302"/></g></g><g class="H C"><text x="83.82" y="64.516" textLength="2.6222" lengthAdjust="spacingAndGlyphs" class="E F G J">13</text><g class="D"><path d="M83.578 64.353h-.726"/><path d="M83.215 64.353v-1.27m0 0l-.121.181m0 0l-.121.121m0 0l-.121.06m1.149-.362h.786m.001 0l-.423.484m-.001-.001h.181m.001 0l.121.061m0 0l.06.06m0 0l.061.121m0 0v.302m0 .001l-.061.121m0 0l-.06.061m0-.001l-.121.06m0 .001h-.363m0 0l-.121-.06m0-.001l-.06-.061M82.55 68.58h2.54"/></g></g><g class="I C"><text x="82.042" y="69.215" textLength="3.7108" lengthAdjust="spacingAndGlyphs" class="E F G K">3V3</text><g class="D"><path d="M78.616 67.89h.786"/><path d="M79.402 67.89l-.423.484m-.001-.001h.181m.001 0l.121.061m0 0l.061.06m-.001 0l.06.121m.001 0v.302m0 .001l-.06.121m-.001 0l-.061.061m.001-.001l-.121.06m0 .001h-.363m0 0l-.121-.06m0-.001l-.061-.061m1.15-1.148l.423 1.27m0 0l.423-1.27m.303 0h.786"/><path d="M81.7 67.89l-.423.484m0-.001h.181m0 0l.121.061m0 0l.06.06m0 0l.061.121m0 0v.302m0 .001l-.061.121m0 0l-.06.061m0-.001l-.121.06m0 .001h-.363m0 0l-.121-.06m0-.001l-.06-.061"/></g></g><g class="H C"><text x="83.82" y="68.326" textLength="2.6222" lengthAdjust="spacingAndGlyphs" class="E F G J">12</text><g class="D"><path d="M83.578 68.163h-.726"/><path d="M83.215 68.163v-1.27m0 0l-.121.181m0 0l-.121.121m0 0l-.121.06m1.21-.241l.06-.06m0-.001l.121-.061m0 .001h.302m.001 0l.121.061m0-.001l.06.06m0 .001l.061.121m0-.001v.121m0 0l-.061.181m0 .001l-.726.726m0 0h.786M82.55 72.39h2.54"/></g></g><g class="I C"><text x="82.042" y="73.025" textLength="3.8922" lengthAdjust="spacingAndGlyphs" class="E F G K">D10</text><g class="D"><path d="M78.555 72.97V71.7m0 0h.302m.001 0l.181.061m0-.001l.121.121m0 0l.061.121m-.001 0l.06.242m.001 0v.181m0 0l-.06.242m-.001 0l-.061.121m.001 0l-.121.121m0 0l-.181.06"/><path d="M78.858 72.97h-.302m1.934 0h-.726"/><path d="M80.128 72.97V71.7m0 0l-.121.181m0 0l-.121.121m0 0l-.121.06m1.512-.362h.121m0 0l.121.061m-.001-.001l.061.06m0 .001l.06.121m0-.001l.061.242m0 0v.302m0 .001l-.061.242m0 0l-.06.121m0 0l-.061.06m0 0l-.121.06m.001.001h-.121m0 0l-.121-.06m0-.001l-.061-.06m0 0l-.061-.121m.001 0l-.06-.242m-.001 0v-.302m0-.001l.06-.242"/><path d="M81.035 71.941l.061-.121m-.001.001l.061-.06m0-.001l.121-.061"/></g></g><g class="H C"><text x="83.82" y="72.136" textLength="2.6222" lengthAdjust="spacingAndGlyphs" class="E F G J">11</text><g class="D"><path d="M83.578 71.973h-.726"/><path d="M83.215 71.973v-1.27m0 0l-.121.181m0 0l-.121.121m0 0l-.121.06m1.936.908h-.726"/><path d="M84.425 71.973v-1.27m0 0l-.121.181m0 0l-.121.121m0 0l-.121.06M82.55 76.2h2.54"/></g></g><g class="I C"><text x="82.042" y="76.835" textLength="2.6827" lengthAdjust="spacingAndGlyphs" class="E F G K">D9</text><g class="D"><path d="M79.765 76.78v-1.27m0 0h.302m0 0l.181.06m0 0l.121.121m0 0l.061.121m0 0l.06.242m0 0v.181m0 0l-.06.242m0 0l-.061.121m0 0l-.121.121m0 0l-.181.06"/><path d="M80.067 76.78h-.302m1.33 0h.242m0 0l.121-.06m0-.001l.06-.06m0 0l.121-.182m0 0l.061-.242m0 0v-.484m0 0l-.061-.121m0 .001l-.06-.061m0 0l-.121-.06"/><path d="M81.458 75.51h-.242m0 0l-.121.06m0 0l-.061.061m.001 0l-.06.121m-.001-.001v.302m0 .001l.06.121m.001 0l.061.06m-.001 0l.121.06m0 .001h.242m0 0l.121-.06m0-.001l.06-.06m0 0l.061-.121"/></g></g><g class="H C"><text x="83.82" y="75.946" textLength="2.6222" lengthAdjust="spacingAndGlyphs" class="E F G J">10</text><g class="D"><path d="M83.578 75.783h-.726"/><path d="M83.215 75.783v-1.27m0 0l-.121.181m0 0l-.121.121m0 0l-.121.061m1.512-.363h.121m0 0l.121.06m0 0l.061.061m0 0l.06.121m0-.001l.061.242m0 0v.302m0 .001l-.061.242m0 0l-.06.121m0 0l-.061.06m0 0l-.121.06m0 .001h-.121m0 0l-.121-.06m0-.001l-.061-.06m.001 0l-.061-.121m0 0l-.06-.242"/><path d="M84.062 75.299v-.302m0-.001l.06-.242m0 0l.061-.121m0 .001l.061-.061m-.001 0l.121-.06M82.55 80.01h2.54"/></g></g><g class="I C"><text x="82.042" y="80.645" textLength="2.6827" lengthAdjust="spacingAndGlyphs" class="E F G K">D8</text><g class="D"><path d="M79.765 80.59v-1.27m0 0h.302m0 0l.181.06m0 0l.121.121m0 0l.061.121m0 0l.06.242m0 0v.181m0 0l-.06.242m0 0l-.061.121m0 0l-.121.121m0 0l-.181.06"/><path d="M80.067 80.59h-.302m1.451-.726l-.121-.061m0 0l-.061-.06m.001 0l-.06-.121m-.001 0v-.06m0-.001l.06-.121m.001.001l.061-.061m-.001 0l.121-.06m0 0h.242m0 0l.121.06m0 0l.06.061m0 0l.061.121m0-.001v.06m0 .001l-.061.121m0 0l-.06.06m0 0l-.121.061"/><path d="M81.458 79.864h-.242m0 0l-.121.061m0-.001l-.061.061m.001 0l-.06.121m-.001 0v.242m0 0l.06.121m.001 0l.061.061m-.001-.001l.121.06m0 .001h.242m0 0l.121-.06m0-.001l.06-.061m0 .001l.061-.121"/><path d="M81.7 80.348v-.242m0 0l-.061-.121m0 0l-.06-.061m0 0l-.121-.061"/></g></g><g class="H C"><text x="83.82" y="79.756" textLength="1.4127" lengthAdjust="spacingAndGlyphs" class="E F G J">9</text><g class="D"><path d="M83.578 79.593h.242m0 0l.121-.06m0-.001l.06-.061m0 .001l.121-.181m0-.001l.061-.242m0 0v-.484m0 0l-.061-.121m0 .001l-.061-.061m.001 0l-.121-.06"/><path d="M83.941 78.323h-.242m0 0l-.121.06m0 0l-.061.061m.001 0l-.06.121m-.001-.001v.302m0 .001l.06.121m.001 0l.061.06m-.001 0l.121.061m0 0h.242m0 0l.121-.061m0 0l.061-.06m-.001 0l.061-.121M82.55 83.82h2.54"/></g></g><g class="I C"><text x="82.042" y="84.455" textLength="2.6827" lengthAdjust="spacingAndGlyphs" class="E F G K">D7</text><g class="D"><path d="M79.765 84.4v-1.27m0 0h.302m0 0l.181.061m0-.001l.121.121m0 0l.061.121m0 0l.06.242m0 0v.181m0 0l-.06.242m0 0l-.061.121m0 0l-.121.121m0 0l-.181.06"/><path d="M80.067 84.4h-.302m1.149-1.27h.847"/><path d="M81.76 83.13l-.544 1.27"/></g></g><g class="H C"><text x="83.82" y="83.566" textLength="1.4127" lengthAdjust="spacingAndGlyphs" class="E F G J">8</text><g class="D"><path d="M83.699 82.677l-.121-.061m0 0l-.061-.06m.001 0l-.06-.121m-.001 0v-.061m0 0l.06-.121m.001.001l.061-.061m-.001 0l.121-.061m0 .001h.242m0 0l.121.061m0-.001l.061.061m-.001 0l.061.121m0-.001v.061m0 0l-.061.121m0 0l-.061.06m.001 0l-.121.061"/><path d="M83.941 82.677h-.242m0 0l-.121.061m0-.001l-.061.06m.001.001l-.06.121m-.001 0v.242m0 0l.06.121m.001 0l.061.061m-.001-.001l.121.06m0 .001h.242m0 0l.121-.06m0-.001l.061-.061m-.001.001l.061-.121"/><path d="M84.183 83.161v-.242m0 0l-.061-.121m0 0l-.061-.06m.001-.001l-.121-.061"/></g></g><g class="I C"><text x="75.946" y="57.531" textLength="2.7432" lengthAdjust="spacingAndGlyphs" class="E F G J">U1</text><g class="D"><path d="M74.978 56.206v1.028m0 0l.06.121m.001 0l.061.061m-.001-.001l.121.06m0 .001h.242m0 0l.121-.06m0-.001l.061-.061m0 .001l.06-.121"/><path d="M75.704 57.234v-1.028m1.27 1.27h-.726"/><path d="M76.611 57.476v-1.27m0 0l-.121.181m0 0l-.121.121m0 0l-.121.06"/></g></g><path d="M109.22 80.01H85.09m24.13-2.54v2.54m-24.13-7.62h11.43" stroke="#008400" class="C D"/><g class="I C"><text x="100.33" y="70.485" textLength="2.6827" lengthAdjust="spacingAndGlyphs" class="E F G J">D1</text><g class="D"><path d="M99.393 70.429v-1.27m0 0h.302m0 0l.181.06m0 .001l.121.121m0 0l.061.121m0 0l.06.242m0 0v.181m0 0l-.06.242m0 0l-.061.121m0 0l-.121.121m0 0l-.181.06"/><path d="M99.695 70.429h-.302m1.935 0h-.726"/><path d="M100.965 70.429v-1.27m0 0l-.121.181m0 .001l-.121.121m0 0l-.121.061"/></g></g><path d="M101.6 72.39h2.54m-5.08 0h-2.54" class="C D H"/><g class="I C"><text x="108.458" y="72.009" textLength="4.0736" lengthAdjust="spacingAndGlyphs" class="E F G J">SW1</text><g class="D"><path d="M106.765 71.893l.181.06m0 .001h.302m.001 0l.121-.06m-.001-.001l.061-.061m0 .001l.06-.121m0 0v-.121m0 0l-.06-.121m0 0l-.061-.061m0 0l-.121-.06m.001 0l-.242-.06m0-.001l-.121-.061m0 .001l-.06-.061m-.001 0l-.06-.121m0 0v-.121m0 0l.06-.121m0 .001l.06-.061m.001 0l.121-.061m0 .001h.302m0 0l.181.061m.424-.061l.302 1.27m0 0l.242-.907m0-.001l.242.907m0 .001l.302-1.27m1.149 1.27h-.726"/><path d="M109.788 71.954v-1.27m0 0l-.121.181m.001 0l-.121.121m0 0l-.121.061"/></g></g><path d="M104.14 72.39h0m5.08 5.08h0" class="C D H"/></g></svg>